<svg xmlns="http://www.w3.org/2000/svg" version="1.1" xmlns:xlink="http://www.w3.org/1999/xlink" xmlns:svgjs="http://svgjs.dev/svgjs" viewBox="0 0 13.347040267452822 4.010826533887734"><g transform="matrix(0.7349449710932983,0,0,0.7349449710932983,3.7497387956612735,1.5561781533630885)"><rect width="14.793529167564536" height="14.793529167564536" x="-3.418532943234072" y="-6.785514583782268" fill="#ffffff"></rect><g clip-path="url(#SvgjsClipPath21856)"><g clip-path="url(#SvgjsClipPath21851cdb5da53-ae12-40da-b3a5-d007ca1ae640)"><path d=" M -1.1861362702254121 -0.6709188168880104 L -1.9720440431223594 -0.2825700304439873 L -1.6752963203164826 -0.13595384079847295 L -1.6752963203164826 0.06961465959103885 C -1.6224782840058944 0.02227177080482623 -1.562647137383185 -0.017609801371122003 -1.497780261175456 -0.04828996189695611 C -1.4061704091785225 -0.09168687758775207 -1.3042606006830848 -0.11667218161953274 -1.1973150626026277 -0.11842106501816962 C -1.0813790334829476 -0.12017873677559343 -0.9713575698269987 -0.09497372377413482 -0.873393734426978 -0.04872937983631209 C -0.80873777883014 -0.01848863724983396 -0.7493460501467861 0.021182014315223374 -0.6967477228058763 0.06830519413175806 L -0.6967477228058763 -0.13595384079847295 L -0.39999999999999947 -0.28257003044398743 L -1.1861362702254121 -0.6709188168880104 Z" fill="#629972" transform="matrix(1,0,0,1,0,0)" fill-rule="nonzero"></path></g><g clip-path="url(#SvgjsClipPath21851cdb5da53-ae12-40da-b3a5-d007ca1ae640)"><path d=" M -1.1963659198536187 -0.027426398136334407 C -1.553595127832452 -0.021951250611959017 -1.8470560044519457 0.26756365291211837 -1.8569165430110939 0.624573151921273 C -1.8593245533187646 0.7142056231911046 -1.8442085762049192 0.8001206186939848 -1.8146181721686878 0.8788027949150655 C -1.7401016780127017 1.077797602931812 -1.499467626062583 1.2862223199271376 -1.4628641117142305 1.4979338831088462 C -1.4576086731595328 1.5277352077559678 -1.4317445332490402 1.549213956631688 -1.4017147112734532 1.549213956631688 L -0.9695295911992781 1.549213956631688 C -0.9394997692236904 1.549213956631688 -0.9138641266416634 1.5279549167256463 -0.9083801907585007 1.4985842216590926 C -0.8704672109508673 1.2881909122954522 -0.634429470646412 1.0802056132394826 -0.5590341406117139 0.8833991065607288 C -0.5305422814238723 0.8088826124047427 -0.5149868863706712 0.7282318438153471 -0.5149868863706712 0.643635102130535 C -0.5149868863706712 0.2695322452804326 -0.8209360208266618 -0.03313004298917521 -1.196357131494832 -0.027435186495121777 Z M -0.6344382590051989 0.6971210537089444 C -0.6456170513824149 0.5169684869317822 -0.7135510648068486 0.36027204975744176 -0.8018740706173992 0.20510478701206014 C -0.6403528244689303 0.29781318385738365 -0.5487429724719965 0.5248604331226155 -0.6344382590051989 0.6971210537089444 Z" fill="#93b360" transform="matrix(1,0,0,1,0,0)" fill-rule="nonzero"></path></g><g clip-path="url(#SvgjsClipPath21851cdb5da53-ae12-40da-b3a5-d007ca1ae640)"><path d=" M -0.9597042060752785 1.578874667538217 L -1.412392567199803 1.578874667538217 C -1.4377645590182169 1.578874667538217 -1.4583293185800765 1.5994394271000765 -1.4583293185800765 1.6248114189184903 C -1.4583293185800765 1.6501834107369042 -1.4377645590182169 1.670748170298764 -1.412392567199803 1.670748170298764 L -0.9597042060752785 1.670748170298764 C -0.9343322142568646 1.670748170298764 -0.9137674546950048 1.6501834107369042 -0.9137674546950048 1.6248114189184903 C -0.9137674546950048 1.5994394271000765 -0.9343322142568646 1.578874667538217 -0.9597042060752785 1.578874667538217 Z" fill="#629972" transform="matrix(1,0,0,1,0,0)" fill-rule="nonzero"></path></g><g clip-path="url(#SvgjsClipPath21851cdb5da53-ae12-40da-b3a5-d007ca1ae640)"><path d=" M -0.9596075341286199 1.700338574334995 L -1.412612276169481 1.700338574334995 C -1.4251005340059777 1.700338574334995 -1.43671874432255 1.7055940128896925 -1.445050108452739 1.7137056680502036 C -1.4531617636132506 1.7220370321803928 -1.458417202167948 1.733646454138178 -1.458417202167948 1.7461435003334613 C -1.458417202167948 1.771568222304598 -1.4378172891709398 1.7921681353016061 -1.4126122761694813 1.7921681353016061 L -1.326916989636279 1.7921681353016061 C -1.3074156214876609 1.8511204460456039 -1.251741368571259 1.8934188168880102 -1.1859956564848182 1.8934188168880102 C -1.120249944398377 1.8934188168880102 -1.0648041888104403 1.8511204460456039 -1.0450743233333573 1.7921681353016061 L -0.9595987457698332 1.7921681353016061 C -0.9343937327683742 1.7921681353016061 -0.9137938197713664 1.771568222304598 -0.9137938197713664 1.7461435003334613 C -0.9137938197713664 1.720718778362325 -0.9343937327683747 1.700338574334995 -0.9595987457698332 1.700338574334995 Z" fill="#629972" transform="matrix(1,0,0,1,0,0)" fill-rule="nonzero"></path></g></g><g><path d=" M 0.9067500000000001 0.7717499999999999 Q 0.9615 0.843 0.9615 0.9344999999999999 Q 0.9615 1.0695 0.8685 1.146 Q 0.7755 1.2225 0.6075 1.2225 L 0.084 1.2225 L 0.084 0.1649999999999998 L 0.591 0.1649999999999998 Q 0.753 0.1649999999999998 0.8452500000000001 0.23699999999999988 Q 0.9375 0.30899999999999994 0.9375 0.4394999999999999 Q 0.9375 0.5324999999999999 0.88875 0.5947499999999999 Q 0.84 0.6569999999999999 0.759 0.6794999999999999 Q 0.852 0.7004999999999999 0.9067500000000001 0.7717499999999999 M 0.378 0.5849999999999999 L 0.5265 0.5849999999999999 Q 0.6375000000000001 0.5849999999999999 0.6375000000000001 0.49349999999999994 Q 0.6375000000000001 0.3989999999999999 0.5265 0.3989999999999999 L 0.378 0.3989999999999999 L 0.378 0.5849999999999999 M 0.66 0.8924999999999998 Q 0.66 0.8444999999999999 0.63075 0.819 Q 0.6015 0.7934999999999999 0.5475 0.7934999999999999 L 0.378 0.7934999999999999 L 0.378 0.9854999999999999 L 0.549 0.9854999999999999 Q 0.66 0.9854999999999999 0.66 0.8924999999999998 M 1.50303076171875 0.41549999999999987 Q 1.57353076171875 0.37349999999999994 1.65453076171875 0.37349999999999994 L 1.65453076171875 0.6869999999999999 L 1.5720307617187501 0.6869999999999999 Q 1.47603076171875 0.6869999999999999 1.42953076171875 0.7244999999999999 Q 1.38303076171875 0.7619999999999999 1.38303076171875 0.855 L 1.38303076171875 1.2225 L 1.08903076171875 1.2225 L 1.08903076171875 0.3809999999999999 L 1.38303076171875 0.3809999999999999 L 1.38303076171875 0.5294999999999999 Q 1.43253076171875 0.4574999999999999 1.50303076171875 0.41549999999999987 M 1.78131298828125 0.26024999999999987 Q 1.73406298828125 0.2174999999999998 1.73406298828125 0.1529999999999998 Q 1.73406298828125 0.08699999999999997 1.78131298828125 0.04349999999999987 Q 1.82856298828125 0 1.9065629882812498 0 Q 1.9830629882812498 0 2.03031298828125 0.04349999999999987 Q 2.07756298828125 0.08699999999999997 2.07756298828125 0.1529999999999998 Q 2.07756298828125 0.2174999999999998 2.03031298828125 0.26024999999999987 Q 1.9830629882812498 0.30299999999999994 1.9065629882812498 0.30299999999999994 Q 1.82856298828125 0.30299999999999994 1.78131298828125 0.26024999999999987 M 2.05206298828125 0.3809999999999999 L 2.05206298828125 1.2225 L 1.75806298828125 1.2225 L 1.75806298828125 0.3809999999999999 L 2.05206298828125 0.3809999999999999 M 2.6782880859375 0.4049999999999999 Q 2.7420380859374998 0.4394999999999999 2.7765380859374997 0.4979999999999999 L 2.7765380859374997 0.3809999999999999 L 3.0705380859374998 0.3809999999999999 L 3.0705380859374998 1.2135 Q 3.0705380859374998 1.3319999999999999 3.0255380859375 1.42725 Q 2.9805380859375 1.5225 2.8852880859375 1.5795 Q 2.7900380859375 1.6364999999999998 2.6445380859374996 1.6364999999999998 Q 2.4495380859374998 1.6364999999999998 2.3325380859375 1.545 Q 2.2155380859375 1.4535 2.1990380859374996 1.2959999999999998 L 2.4885380859375 1.2959999999999998 Q 2.4975380859375 1.3365 2.5335380859375 1.359 Q 2.5695380859375 1.3815 2.6265380859375 1.3815 Q 2.7765380859374997 1.3815 2.7765380859374997 1.2135 L 2.7765380859374997 1.1055 Q 2.7420380859374998 1.164 2.6782880859375 1.1985 Q 2.6145380859375 1.2329999999999999 2.5290380859374997 1.2329999999999999 Q 2.4285380859375 1.2329999999999999 2.3467880859375 1.1804999999999999 Q 2.2650380859375 1.128 2.2177880859375 1.02975 Q 2.1705380859375 0.9315 2.1705380859375 0.8009999999999999 Q 2.1705380859375 0.6704999999999999 2.2177880859375 0.573 Q 2.2650380859375 0.4754999999999999 2.3467880859375 0.42299999999999993 Q 2.4285380859375 0.37049999999999994 2.5290380859374997 0.37049999999999994 Q 2.6145380859375 0.37049999999999994 2.6782880859375 0.4049999999999999 M 2.7322880859375 0.6734999999999999 Q 2.6880380859375 0.6269999999999999 2.6235380859374997 0.6269999999999999 Q 2.5575380859375 0.6269999999999999 2.5140380859375 0.67275 Q 2.4705380859374997 0.7184999999999999 2.4705380859374997 0.8009999999999999 Q 2.4705380859374997 0.8819999999999999 2.5140380859375 0.9292499999999999 Q 2.5575380859375 0.9764999999999999 2.6235380859374997 0.9764999999999999 Q 2.6880380859375 0.9764999999999999 2.7322880859375 0.9299999999999999 Q 2.7765380859374997 0.8835 2.7765380859374997 0.8009999999999999 Q 2.7765380859374997 0.7199999999999999 2.7322880859375 0.6734999999999999 M 4.019277099609375 0.47024999999999995 Q 4.104027099609375 0.567 4.104027099609375 0.732 L 4.104027099609375 1.2225 L 3.810027099609375 1.2225 L 3.810027099609375 0.7709999999999999 Q 3.810027099609375 0.699 3.7725270996093747 0.65775 Q 3.7350270996093746 0.6164999999999999 3.672027099609375 0.6164999999999999 Q 3.6060270996093746 0.6164999999999999 3.568527099609375 0.65775 Q 3.531027099609375 0.699 3.531027099609375 0.7709999999999999 L 3.531027099609375 1.2225 L 3.237027099609375 1.2225 L 3.237027099609375 0.11249999999999982 L 3.531027099609375 0.11249999999999982 L 3.531027099609375 0.5009999999999999 Q 3.5700270996093746 0.44399999999999995 3.636777099609375 0.40874999999999995 Q 3.7035270996093748 0.37349999999999994 3.790527099609375 0.37349999999999994 Q 3.9345270996093746 0.37349999999999994 4.019277099609375 0.47024999999999995 M 4.7609882812499995 0.972 L 4.7609882812499995 1.2225 L 4.63348828125 1.2225 Q 4.310988281249999 1.2225 4.310988281249999 0.9029999999999999 L 4.310988281249999 0.6255 L 4.20748828125 0.6255 L 4.20748828125 0.3809999999999999 L 4.310988281249999 0.3809999999999999 L 4.310988281249999 0.17699999999999982 L 4.60648828125 0.17699999999999982 L 4.60648828125 0.3809999999999999 L 4.7594882812499995 0.3809999999999999 L 4.7594882812499995 0.6255 L 4.60648828125 0.6255 L 4.60648828125 0.9075 Q 4.60648828125 0.942 4.62223828125 0.9569999999999999 Q 4.637988281249999 0.972 4.67548828125 0.972 L 4.7609882812499995 0.972 M 5.61151904296875 0.1649999999999998 L 5.61151904296875 0.3989999999999999 L 5.18851904296875 0.3989999999999999 L 5.18851904296875 0.5849999999999999 L 5.50051904296875 0.5849999999999999 L 5.50051904296875 0.8084999999999999 L 5.18851904296875 0.8084999999999999 L 5.18851904296875 1.2225 L 4.894519042968749 1.2225 L 4.894519042968749 0.1649999999999998 L 5.61151904296875 0.1649999999999998 M 6.595480224609375 0.3809999999999999 L 6.595480224609375 1.2225 L 6.299980224609374 1.2225 L 6.299980224609374 1.1025 Q 6.262480224609375 1.1595 6.196480224609375 1.19475 Q 6.130480224609375 1.23 6.0449802246093745 1.23 Q 5.897980224609374 1.23 5.8132302246093746 1.1332499999999999 Q 5.728480224609375 1.0365 5.728480224609375 0.8699999999999999 L 5.728480224609375 0.3809999999999999 L 6.020980224609374 0.3809999999999999 L 6.020980224609374 0.8324999999999999 Q 6.020980224609374 0.9044999999999999 6.059230224609375 0.9457499999999999 Q 6.097480224609375 0.9869999999999999 6.160480224609374 0.9869999999999999 Q 6.224980224609375 0.9869999999999999 6.262480224609375 0.9457499999999999 Q 6.299980224609374 0.9044999999999999 6.299980224609374 0.8324999999999999 L 6.299980224609374 0.3809999999999999 L 6.595480224609375 0.3809999999999999 M 7.258441406249999 0.972 L 7.258441406249999 1.2225 L 7.13094140625 1.2225 Q 6.808441406249999 1.2225 6.808441406249999 0.9029999999999999 L 6.808441406249999 0.6255 L 6.70494140625 0.6255 L 6.70494140625 0.3809999999999999 L 6.808441406249999 0.3809999999999999 L 6.808441406249999 0.17699999999999982 L 7.10394140625 0.17699999999999982 L 7.10394140625 0.3809999999999999 L 7.256941406249999 0.3809999999999999 L 7.256941406249999 0.6255 L 7.10394140625 0.6255 L 7.10394140625 0.9075 Q 7.10394140625 0.942 7.119691406249999 0.9569999999999999 Q 7.135441406249999 0.972 7.17294140625 0.972 L 7.258441406249999 0.972 M 8.25297216796875 0.3809999999999999 L 8.25297216796875 1.2225 L 7.957472167968749 1.2225 L 7.957472167968749 1.1025 Q 7.91997216796875 1.1595 7.85397216796875 1.19475 Q 7.78797216796875 1.23 7.702472167968749 1.23 Q 7.555472167968749 1.23 7.470722167968749 1.1332499999999999 Q 7.38597216796875 1.0365 7.38597216796875 0.8699999999999999 L 7.38597216796875 0.3809999999999999 L 7.678472167968749 0.3809999999999999 L 7.678472167968749 0.8324999999999999 Q 7.678472167968749 0.9044999999999999 7.71672216796875 0.9457499999999999 Q 7.7549721679687496 0.9869999999999999 7.817972167968749 0.9869999999999999 Q 7.88247216796875 0.9869999999999999 7.91997216796875 0.9457499999999999 Q 7.957472167968749 0.9044999999999999 7.957472167968749 0.8324999999999999 L 7.957472167968749 0.3809999999999999 L 8.25297216796875 0.3809999999999999 M 8.833433349609374 0.41549999999999987 Q 8.903933349609375 0.37349999999999994 8.984933349609374 0.37349999999999994 L 8.984933349609374 0.6869999999999999 L 8.902433349609375 0.6869999999999999 Q 8.806433349609375 0.6869999999999999 8.759933349609375 0.7244999999999999 Q 8.713433349609375 0.7619999999999999 8.713433349609375 0.855 L 8.713433349609375 1.2225 L 8.419433349609374 1.2225 L 8.419433349609374 0.3809999999999999 L 8.713433349609375 0.3809999999999999 L 8.713433349609375 0.5294999999999999 Q 8.762933349609375 0.4574999999999999 8.833433349609374 0.41549999999999987 M 9.887965576171874 0.861 L 9.331465576171874 0.861 Q 9.335965576171875 0.9299999999999999 9.369715576171874 0.9637499999999999 Q 9.403465576171875 0.9974999999999999 9.455965576171874 0.9974999999999999 Q 9.529465576171875 0.9974999999999999 9.560965576171874 0.9315 L 9.874465576171874 0.9315 Q 9.854965576171875 1.0185 9.798715576171874 1.0867499999999999 Q 9.742465576171874 1.1549999999999998 9.656965576171874 1.194 Q 9.571465576171875 1.2329999999999999 9.467965576171874 1.2329999999999999 Q 9.343465576171875 1.2329999999999999 9.246715576171875 1.1804999999999999 Q 9.149965576171875 1.128 9.095215576171874 1.0305 Q 9.040465576171874 0.9329999999999999 9.040465576171874 0.8009999999999999 Q 9.040465576171874 0.6689999999999999 9.094465576171874 0.5722499999999999 Q 9.148465576171875 0.4754999999999999 9.245215576171875 0.42299999999999993 Q 9.341965576171875 0.37049999999999994 9.467965576171874 0.37049999999999994 Q 9.592465576171874 0.37049999999999994 9.688465576171874 0.4214999999999999 Q 9.784465576171874 0.4724999999999999 9.838465576171874 0.5677499999999999 Q 9.892465576171874 0.6629999999999999 9.892465576171874 0.7919999999999999 Q 9.892465576171874 0.8264999999999999 9.887965576171874 0.861 M 9.592465576171874 0.7184999999999999 Q 9.592465576171874 0.6644999999999999 9.556465576171874 0.6337499999999999 Q 9.520465576171874 0.6029999999999999 9.466465576171874 0.6029999999999999 Q 9.412465576171874 0.6029999999999999 9.377965576171874 0.6322499999999999 Q 9.343465576171875 0.6614999999999999 9.332965576171874 0.7184999999999999 L 9.592465576171874 0.7184999999999999" fill="#5d8f6c" fill-rule="nonzero"></path></g><g></g></g><defs><clipPath id="SvgjsClipPath21856"><path d=" M -1.9720440431223594 -0.6709188168880104 h 1.5720440431223595 v 2.5643376337760206 h -1.5720440431223595 Z"></path></clipPath><clipPath id="SvgjsClipPath21851cdb5da53-ae12-40da-b3a5-d007ca1ae640"><path d=" M -1.9720440431223594 -0.6709188168880104 L -0.3999999999999999 -0.6709188168880104 L -0.3999999999999999 1.8934188168880102 L -1.9720440431223594 1.8934188168880102 Z"></path></clipPath></defs></svg>